<mxfile host="app.diagrams.net" agent="Mozilla/5.0 (Windows NT 10.0; Win64; x64) AppleWebKit/537.36 (KHTML, like Gecko) Chrome/127.0.0.0 Safari/537.36 Edg/127.0.0.0" version="24.7.7">
  <diagram name="Page-1" id="wM4_WcVJhTHku1FO88cY">
    <mxGraphModel dx="1102" dy="752" grid="1" gridSize="10" guides="1" tooltips="1" connect="1" arrows="1" fold="1" page="1" pageScale="1" pageWidth="1100" pageHeight="850" math="0" shadow="0">
      <root>
        <mxCell id="0" />
        <mxCell id="1" parent="0" />
        <mxCell id="KBhUbNRlij_uPpNZcL6_-18" value="" style="ellipse;shape=cloud;whiteSpace=wrap;html=1;fillColor=none;" parent="1" vertex="1">
          <mxGeometry x="699" y="255" width="270" height="145" as="geometry" />
        </mxCell>
        <mxCell id="KBhUbNRlij_uPpNZcL6_-1" value="" style="whiteSpace=wrap;html=1;aspect=fixed;fillColor=none;" parent="1" vertex="1">
          <mxGeometry x="567" y="344" width="132" height="132" as="geometry" />
        </mxCell>
        <mxCell id="KBhUbNRlij_uPpNZcL6_-2" value="" style="sketch=0;outlineConnect=0;fontColor=#232F3E;gradientColor=none;fillColor=#DD344C;strokeColor=none;dashed=0;verticalLabelPosition=bottom;verticalAlign=top;align=center;html=1;fontSize=12;fontStyle=0;aspect=fixed;pointerEvents=1;shape=mxgraph.aws4.network_firewall_endpoints;" parent="1" vertex="1">
          <mxGeometry x="270" y="210" width="78" height="78" as="geometry" />
        </mxCell>
        <mxCell id="KBhUbNRlij_uPpNZcL6_-3" value="" style="sketch=0;outlineConnect=0;fontColor=#232F3E;gradientColor=none;fillColor=#DD344C;strokeColor=none;dashed=0;verticalLabelPosition=bottom;verticalAlign=top;align=center;html=1;fontSize=12;fontStyle=0;aspect=fixed;pointerEvents=1;shape=mxgraph.aws4.network_firewall_endpoints;" parent="1" vertex="1">
          <mxGeometry x="270" y="370" width="78" height="78" as="geometry" />
        </mxCell>
        <mxCell id="KBhUbNRlij_uPpNZcL6_-4" value="INTERNET" style="ellipse;shape=cloud;whiteSpace=wrap;html=1;fontStyle=1" parent="1" vertex="1">
          <mxGeometry x="330" y="190" width="300.5" height="270" as="geometry" />
        </mxCell>
        <mxCell id="KBhUbNRlij_uPpNZcL6_-5" value="" style="sketch=0;points=[[0.5,0,0],[1,0.5,0],[0.5,1,0],[0,0.5,0],[0.145,0.145,0],[0.8555,0.145,0],[0.855,0.8555,0],[0.145,0.855,0]];verticalLabelPosition=bottom;html=1;verticalAlign=top;aspect=fixed;align=center;pointerEvents=1;shape=mxgraph.cisco19.rect;prIcon=router;fillColor=#FAFAFA;strokeColor=#005073;" parent="1" vertex="1">
          <mxGeometry x="600" y="224" width="66" height="66" as="geometry" />
        </mxCell>
        <mxCell id="KBhUbNRlij_uPpNZcL6_-6" value="" style="sketch=0;points=[[0.5,0,0],[1,0.5,0],[0.5,1,0],[0,0.5,0],[0.145,0.145,0],[0.8555,0.145,0],[0.855,0.8555,0],[0.145,0.855,0]];verticalLabelPosition=bottom;html=1;verticalAlign=top;aspect=fixed;align=center;pointerEvents=1;shape=mxgraph.cisco19.rect;prIcon=router;fillColor=#FAFAFA;strokeColor=#005073;" parent="1" vertex="1">
          <mxGeometry x="599" y="373" width="66" height="66" as="geometry" />
        </mxCell>
        <mxCell id="KBhUbNRlij_uPpNZcL6_-7" value="" style="whiteSpace=wrap;html=1;aspect=fixed;fillColor=none;" parent="1" vertex="1">
          <mxGeometry x="243" y="343" width="132" height="132" as="geometry" />
        </mxCell>
        <mxCell id="KBhUbNRlij_uPpNZcL6_-8" value="" style="whiteSpace=wrap;html=1;aspect=fixed;fillColor=none;" parent="1" vertex="1">
          <mxGeometry x="240" y="189" width="135" height="135" as="geometry" />
        </mxCell>
        <mxCell id="KBhUbNRlij_uPpNZcL6_-9" value="" style="html=1;strokeWidth=1;shadow=0;dashed=0;shape=mxgraph.ios7.misc.vpn;fillColor=#007AFF;strokeColor=none;buttonText=;strokeColor2=#222222;fontColor=#222222;fontSize=8;verticalLabelPosition=bottom;verticalAlign=top;align=center;sketch=0;" parent="1" vertex="1">
          <mxGeometry x="470" y="260.5" width="15" height="15" as="geometry" />
        </mxCell>
        <mxCell id="KBhUbNRlij_uPpNZcL6_-10" value="" style="html=1;strokeWidth=1;shadow=0;dashed=0;shape=mxgraph.ios7.misc.vpn;fillColor=#007AFF;strokeColor=none;buttonText=;strokeColor2=#222222;fontColor=#222222;fontSize=8;verticalLabelPosition=bottom;verticalAlign=top;align=center;sketch=0;" parent="1" vertex="1">
          <mxGeometry x="468" y="410" width="15" height="15" as="geometry" />
        </mxCell>
        <mxCell id="KBhUbNRlij_uPpNZcL6_-12" value="PAC&lt;div&gt;NEW YORK DC&lt;/div&gt;" style="text;html=1;align=center;verticalAlign=middle;whiteSpace=wrap;rounded=0;fontStyle=1" parent="1" vertex="1">
          <mxGeometry x="263.5" y="446" width="91" height="30" as="geometry" />
        </mxCell>
        <mxCell id="KBhUbNRlij_uPpNZcL6_-13" value="PAC&lt;div&gt;LONDON DC&lt;/div&gt;" style="text;html=1;align=center;verticalAlign=middle;whiteSpace=wrap;rounded=0;fontStyle=1" parent="1" vertex="1">
          <mxGeometry x="263.5" y="290" width="91" height="30" as="geometry" />
        </mxCell>
        <mxCell id="KBhUbNRlij_uPpNZcL6_-14" value="" style="whiteSpace=wrap;html=1;aspect=fixed;fillColor=none;" parent="1" vertex="1">
          <mxGeometry x="567" y="200" width="132" height="132" as="geometry" />
        </mxCell>
        <mxCell id="KBhUbNRlij_uPpNZcL6_-15" value="SITA&lt;div&gt;LOCATION A&lt;/div&gt;" style="text;html=1;align=center;verticalAlign=middle;whiteSpace=wrap;rounded=0;fontStyle=1" parent="1" vertex="1">
          <mxGeometry x="587.5" y="303" width="91" height="30" as="geometry" />
        </mxCell>
        <mxCell id="KBhUbNRlij_uPpNZcL6_-16" value="SITA&lt;div&gt;LOCATION B&lt;/div&gt;" style="text;html=1;align=center;verticalAlign=middle;whiteSpace=wrap;rounded=0;fontStyle=1" parent="1" vertex="1">
          <mxGeometry x="587.5" y="447" width="91" height="30" as="geometry" />
        </mxCell>
        <mxCell id="KBhUbNRlij_uPpNZcL6_-17" value="&lt;b&gt;SITA ONAIR NETWORKS&lt;br&gt;&lt;/b&gt;&lt;br&gt;Default 0.0.0.0/0&lt;br&gt;10.121.x.x/16&lt;div&gt;&lt;br/&gt;&lt;/div&gt;" style="text;html=1;align=center;verticalAlign=middle;whiteSpace=wrap;rounded=0;" parent="1" vertex="1">
          <mxGeometry x="730" y="290" width="200" height="110" as="geometry" />
        </mxCell>
        <mxCell id="KBhUbNRlij_uPpNZcL6_-19" value="" style="image;aspect=fixed;perimeter=ellipsePerimeter;html=1;align=center;shadow=0;dashed=0;spacingTop=3;image=img/lib/active_directory/tunnel.svg;" parent="1" vertex="1">
          <mxGeometry x="420" y="237.5" width="115" height="23" as="geometry" />
        </mxCell>
        <mxCell id="KBhUbNRlij_uPpNZcL6_-20" value="" style="image;aspect=fixed;perimeter=ellipsePerimeter;html=1;align=center;shadow=0;dashed=0;spacingTop=3;image=img/lib/active_directory/tunnel.svg;" parent="1" vertex="1">
          <mxGeometry x="418" y="387" width="115" height="23" as="geometry" />
        </mxCell>
        <mxCell id="KBhUbNRlij_uPpNZcL6_-21" value="" style="endArrow=none;html=1;rounded=0;fillColor=#dae8fc;gradientColor=#7ea6e0;strokeColor=#6c8ebf;strokeWidth=4;" parent="1" edge="1">
          <mxGeometry width="50" height="50" relative="1" as="geometry">
            <mxPoint x="348" y="248.5" as="sourcePoint" />
            <mxPoint x="598" y="248.5" as="targetPoint" />
          </mxGeometry>
        </mxCell>
        <mxCell id="KBhUbNRlij_uPpNZcL6_-22" value="" style="endArrow=none;html=1;rounded=0;fillColor=#dae8fc;gradientColor=#7ea6e0;strokeColor=#6c8ebf;strokeWidth=4;" parent="1" edge="1">
          <mxGeometry width="50" height="50" relative="1" as="geometry">
            <mxPoint x="348" y="400" as="sourcePoint" />
            <mxPoint x="598" y="400" as="targetPoint" />
          </mxGeometry>
        </mxCell>
        <mxCell id="KBhUbNRlij_uPpNZcL6_-23" value="" style="endArrow=none;html=1;rounded=0;strokeWidth=3;entryX=0.3;entryY=0.131;entryDx=0;entryDy=0;entryPerimeter=0;" parent="1" target="KBhUbNRlij_uPpNZcL6_-18" edge="1">
          <mxGeometry width="50" height="50" relative="1" as="geometry">
            <mxPoint x="700" y="250" as="sourcePoint" />
            <mxPoint x="750" y="200" as="targetPoint" />
          </mxGeometry>
        </mxCell>
        <mxCell id="KBhUbNRlij_uPpNZcL6_-24" value="" style="endArrow=none;html=1;rounded=0;strokeWidth=3;exitX=1;exitY=0.5;exitDx=0;exitDy=0;entryX=0.31;entryY=0.8;entryDx=0;entryDy=0;entryPerimeter=0;" parent="1" source="KBhUbNRlij_uPpNZcL6_-1" target="KBhUbNRlij_uPpNZcL6_-18" edge="1">
          <mxGeometry width="50" height="50" relative="1" as="geometry">
            <mxPoint x="710" y="260" as="sourcePoint" />
            <mxPoint x="752" y="285" as="targetPoint" />
          </mxGeometry>
        </mxCell>
        <mxCell id="KBhUbNRlij_uPpNZcL6_-25" value="" style="endArrow=none;html=1;rounded=0;strokeWidth=3;exitX=1;exitY=0.107;exitDx=0;exitDy=0;exitPerimeter=0;" parent="1" source="KBhUbNRlij_uPpNZcL6_-11" target="KBhUbNRlij_uPpNZcL6_-8" edge="1">
          <mxGeometry width="50" height="50" relative="1" as="geometry">
            <mxPoint x="720" y="270" as="sourcePoint" />
            <mxPoint x="762" y="295" as="targetPoint" />
          </mxGeometry>
        </mxCell>
        <mxCell id="KBhUbNRlij_uPpNZcL6_-26" value="" style="endArrow=none;html=1;rounded=0;strokeWidth=3;entryX=0;entryY=0.5;entryDx=0;entryDy=0;exitX=1;exitY=1;exitDx=0;exitDy=0;" parent="1" source="KBhUbNRlij_uPpNZcL6_-11" target="KBhUbNRlij_uPpNZcL6_-7" edge="1">
          <mxGeometry width="50" height="50" relative="1" as="geometry">
            <mxPoint x="190" y="276" as="sourcePoint" />
            <mxPoint x="253" y="271" as="targetPoint" />
          </mxGeometry>
        </mxCell>
        <mxCell id="KBhUbNRlij_uPpNZcL6_-27" value="&lt;b&gt;PAC&lt;/b&gt;&lt;br&gt;INTERNAL NETWORKS&lt;div&gt;&lt;span style=&quot;background-color: initial;&quot;&gt;10.208.0.0/13&lt;/span&gt;&lt;br&gt;&lt;/div&gt;&lt;div&gt;&lt;span style=&quot;background-color: initial;&quot;&gt;10.216.0.0/14&lt;/span&gt;&lt;/div&gt;&lt;div&gt;.... etc&amp;nbsp;&lt;/div&gt;" style="text;html=1;align=center;verticalAlign=middle;whiteSpace=wrap;rounded=0;" parent="1" vertex="1">
          <mxGeometry x="30" y="400" width="140" height="80" as="geometry" />
        </mxCell>
        <mxCell id="KBhUbNRlij_uPpNZcL6_-28" value="&lt;b&gt;BGP&lt;br&gt;AS 64657&lt;/b&gt;" style="fillColor=#999999;verticalLabelPosition=bottom;sketch=0;html=1;strokeColor=#ffffff;verticalAlign=top;align=center;points=[[0.145,0.145,0],[0.5,0,0],[0.855,0.145,0],[1,0.5,0],[0.855,0.855,0],[0.5,1,0],[0.145,0.855,0],[0,0.5,0]];pointerEvents=1;shape=mxgraph.cisco_safe.compositeIcon;bgIcon=ellipse;resIcon=mxgraph.cisco_safe.capability.routing;" parent="1" vertex="1">
          <mxGeometry x="230" y="187" width="32" height="30" as="geometry" />
        </mxCell>
        <mxCell id="KBhUbNRlij_uPpNZcL6_-29" value="&lt;b&gt;BGP&lt;br&gt;AS 64657&lt;/b&gt;" style="fillColor=#999999;verticalLabelPosition=bottom;sketch=0;html=1;strokeColor=#ffffff;verticalAlign=top;align=center;points=[[0.145,0.145,0],[0.5,0,0],[0.855,0.145,0],[1,0.5,0],[0.855,0.855,0],[0.5,1,0],[0.145,0.855,0],[0,0.5,0]];pointerEvents=1;shape=mxgraph.cisco_safe.compositeIcon;bgIcon=ellipse;resIcon=mxgraph.cisco_safe.capability.routing;" parent="1" vertex="1">
          <mxGeometry x="227" y="342" width="32" height="30" as="geometry" />
        </mxCell>
        <mxCell id="KBhUbNRlij_uPpNZcL6_-30" value="&lt;b&gt;BGP&lt;br&gt;AS 64658&lt;/b&gt;" style="fillColor=#999999;verticalLabelPosition=bottom;sketch=0;html=1;strokeColor=#ffffff;verticalAlign=top;align=center;points=[[0.145,0.145,0],[0.5,0,0],[0.855,0.145,0],[1,0.5,0],[0.855,0.855,0],[0.5,1,0],[0.145,0.855,0],[0,0.5,0]];pointerEvents=1;shape=mxgraph.cisco_safe.compositeIcon;bgIcon=ellipse;resIcon=mxgraph.cisco_safe.capability.routing;" parent="1" vertex="1">
          <mxGeometry x="654" y="237.5" width="32" height="30" as="geometry" />
        </mxCell>
        <mxCell id="KBhUbNRlij_uPpNZcL6_-31" value="&lt;b&gt;BGP&lt;br&gt;AS 64658&lt;/b&gt;" style="fillColor=#999999;verticalLabelPosition=bottom;sketch=0;html=1;strokeColor=#ffffff;verticalAlign=top;align=center;points=[[0.145,0.145,0],[0.5,0,0],[0.855,0.145,0],[1,0.5,0],[0.855,0.855,0],[0.5,1,0],[0.145,0.855,0],[0,0.5,0]];pointerEvents=1;shape=mxgraph.cisco_safe.compositeIcon;bgIcon=ellipse;resIcon=mxgraph.cisco_safe.capability.routing;" parent="1" vertex="1">
          <mxGeometry x="655" y="384" width="32" height="30" as="geometry" />
        </mxCell>
        <mxCell id="KBhUbNRlij_uPpNZcL6_-32" value="Local Pref: 150&lt;div&gt;AS-PATH 3x&lt;br&gt;&lt;/div&gt;" style="text;html=1;align=center;verticalAlign=middle;whiteSpace=wrap;rounded=0;" parent="1" vertex="1">
          <mxGeometry x="389.25" y="460" width="182" height="30" as="geometry" />
        </mxCell>
        <mxCell id="KBhUbNRlij_uPpNZcL6_-33" value="Local Pref: 180&lt;div&gt;AS-PATH 1x&lt;br&gt;&lt;/div&gt;" style="text;html=1;align=center;verticalAlign=middle;whiteSpace=wrap;rounded=0;" parent="1" vertex="1">
          <mxGeometry x="384.5" y="180" width="182" height="30" as="geometry" />
        </mxCell>
        <mxCell id="KBhUbNRlij_uPpNZcL6_-34" value="" style="endArrow=classic;html=1;rounded=0;entryX=0.03;entryY=0.333;entryDx=0;entryDy=0;entryPerimeter=0;" parent="1" edge="1">
          <mxGeometry width="50" height="50" relative="1" as="geometry">
            <mxPoint x="431" y="188" as="sourcePoint" />
            <mxPoint x="390.96000000000004" y="187.98999999999995" as="targetPoint" />
          </mxGeometry>
        </mxCell>
        <mxCell id="KBhUbNRlij_uPpNZcL6_-35" value="" style="endArrow=classic;html=1;rounded=0;entryX=0.03;entryY=0.333;entryDx=0;entryDy=0;entryPerimeter=0;" parent="1" edge="1">
          <mxGeometry width="50" height="50" relative="1" as="geometry">
            <mxPoint x="512" y="203.8" as="sourcePoint" />
            <mxPoint x="552" y="203.8" as="targetPoint" />
          </mxGeometry>
        </mxCell>
        <mxCell id="KBhUbNRlij_uPpNZcL6_-36" value="" style="endArrow=classic;html=1;rounded=0;entryX=0.03;entryY=0.333;entryDx=0;entryDy=0;entryPerimeter=0;" parent="1" edge="1">
          <mxGeometry width="50" height="50" relative="1" as="geometry">
            <mxPoint x="516" y="483" as="sourcePoint" />
            <mxPoint x="556" y="483" as="targetPoint" />
          </mxGeometry>
        </mxCell>
        <mxCell id="KBhUbNRlij_uPpNZcL6_-37" value="" style="endArrow=classic;html=1;rounded=0;entryX=0.03;entryY=0.333;entryDx=0;entryDy=0;entryPerimeter=0;" parent="1" edge="1">
          <mxGeometry width="50" height="50" relative="1" as="geometry">
            <mxPoint x="434.25" y="468" as="sourcePoint" />
            <mxPoint x="394.25" y="468" as="targetPoint" />
          </mxGeometry>
        </mxCell>
        <mxCell id="KBhUbNRlij_uPpNZcL6_-11" value="" style="shape=image;verticalLabelPosition=bottom;labelBackgroundColor=default;verticalAlign=top;aspect=fixed;imageAspect=0;image=https://cdn-icons-png.flaticon.com/512/1935/1935029.png;" parent="1" vertex="1">
          <mxGeometry x="30" y="250" width="150" height="150" as="geometry" />
        </mxCell>
        <mxCell id="-4Sqmfq4-ZQDsCpny3Mt-1" value="10.x.x.x/21" style="verticalLabelPosition=bottom;html=1;verticalAlign=top;strokeWidth=2;shape=mxgraph.lean_mapping.airplane_7;" vertex="1" parent="1">
          <mxGeometry x="70" y="477" width="70" height="30" as="geometry" />
        </mxCell>
      </root>
    </mxGraphModel>
  </diagram>
</mxfile>
